<mxfile host="Electron" modified="2024-04-01T17:51:55.249Z" agent="Mozilla/5.0 (Windows NT 10.0; Win64; x64) AppleWebKit/537.36 (KHTML, like Gecko) draw.io/24.1.0 Chrome/120.0.6099.109 Electron/28.1.0 Safari/537.36" etag="sfefCp10zZVvTOMFmPtG" version="24.1.0" type="device">
  <diagram name="Overview of inverter topologies" id="hbq-icvMrwvDVVLTFx14">
    <mxGraphModel dx="1036" dy="606" grid="1" gridSize="10" guides="1" tooltips="1" connect="1" arrows="1" fold="1" page="0" pageScale="1" pageWidth="850" pageHeight="1100" math="0" shadow="0">
      <root>
        <mxCell id="0" />
        <mxCell id="1" parent="0" />
        <mxCell id="ewJG1EBhsnl9meAnirIa-1" value="&lt;font style=&quot;font-size: 17px;&quot;&gt;&lt;b&gt;Inverter&lt;/b&gt;&lt;/font&gt;" style="rounded=1;whiteSpace=wrap;html=1;fillColor=#d5e8d4;strokeColor=#82b366;" vertex="1" parent="1">
          <mxGeometry x="350" y="160" width="120" height="60" as="geometry" />
        </mxCell>
        <mxCell id="ewJG1EBhsnl9meAnirIa-2" value="&lt;font style=&quot;font-size: 17px;&quot;&gt;&lt;b&gt;CSI&lt;/b&gt;&lt;/font&gt;" style="rounded=1;whiteSpace=wrap;html=1;fillColor=#d5e8d4;strokeColor=#82b366;" vertex="1" parent="1">
          <mxGeometry x="190" y="270" width="120" height="60" as="geometry" />
        </mxCell>
        <mxCell id="ewJG1EBhsnl9meAnirIa-3" value="&lt;font style=&quot;font-size: 17px;&quot;&gt;&lt;b&gt;VSI&lt;/b&gt;&lt;/font&gt;" style="rounded=1;whiteSpace=wrap;html=1;fillColor=#d5e8d4;strokeColor=#82b366;" vertex="1" parent="1">
          <mxGeometry x="510" y="270" width="120" height="60" as="geometry" />
        </mxCell>
        <mxCell id="ewJG1EBhsnl9meAnirIa-4" value="&lt;font style=&quot;font-size: 17px;&quot;&gt;&lt;b&gt;Conventional&lt;/b&gt;&lt;/font&gt;" style="rounded=1;whiteSpace=wrap;html=1;fillColor=#d5e8d4;strokeColor=#82b366;" vertex="1" parent="1">
          <mxGeometry x="400" y="420" width="120" height="60" as="geometry" />
        </mxCell>
        <mxCell id="ewJG1EBhsnl9meAnirIa-5" value="&lt;font style=&quot;font-size: 17px;&quot;&gt;&lt;b&gt;Multilevel Inverter&lt;/b&gt;&lt;/font&gt;" style="rounded=1;whiteSpace=wrap;html=1;fillColor=#f8cecc;strokeColor=#b85450;" vertex="1" parent="1">
          <mxGeometry x="630" y="420" width="120" height="60" as="geometry" />
        </mxCell>
      </root>
    </mxGraphModel>
  </diagram>
</mxfile>
